<?xml version="1.0" standalone="no"?>
<!DOCTYPE svg PUBLIC "-//W3C//DTD SVG 20010904//EN"
 "http://www.w3.org/TR/2001/REC-SVG-20010904/DTD/svg10.dtd">
<svg version="1.0" xmlns="http://www.w3.org/2000/svg"
 width="16.000000pt" height="16.000000pt" viewBox="0 0 16.000000 16.000000"
 preserveAspectRatio="xMidYMid meet">
<metadata>
Created by potrace 1.11, written by Peter Selinger 2001-2013
</metadata>
<g transform="translate(0.000000,16.000000) scale(0.002842,-0.002842)"
fill="#000000" stroke="none">
<path d="M2498 5575 c-1 -2 -34 -6 -73 -9 -153 -13 -308 -34 -430 -59 -31 -7
-104 -19 -110 -18 -2 0 -23 -6 -45 -14 -22 -8 -43 -14 -45 -14 -3 0 -22 -3
-43 -8 -20 -4 -39 -8 -42 -8 -3 -1 -61 -29 -130 -64 -253 -128 -368 -228 -467
-411 -49 -91 -105 -264 -118 -366 -3 -22 -8 -50 -11 -64 -3 -14 -7 -312 -8
-662 l-2 -637 -23 -27 c-21 -24 -22 -31 -12 -64 15 -52 14 -102 -4 -127 l-15
-22 -48 23 c-26 12 -119 58 -207 103 -88 44 -163 81 -168 82 -4 0 -29 12 -57
26 -27 14 -58 25 -68 25 -10 0 -22 4 -28 9 -16 15 -101 31 -161 31 -69 0 -130
-25 -162 -66 -21 -26 -22 -37 -18 -114 6 -107 32 -167 103 -237 79 -77 193
-127 489 -213 61 -18 155 -53 210 -79 55 -26 114 -53 130 -59 37 -13 257 -69
305 -77 19 -3 62 -12 95 -20 33 -8 87 -19 120 -25 33 -5 71 -12 85 -15 14 -3
39 -7 55 -10 17 -3 41 -8 55 -10 14 -3 45 -7 70 -10 25 -3 72 -10 105 -15 33
-5 85 -12 115 -15 30 -3 78 -8 105 -11 28 -3 70 -7 95 -9 25 -2 72 -6 105 -9
347 -31 1020 -22 1380 20 28 3 70 7 95 10 25 2 63 7 85 10 22 3 54 7 70 9 17
1 53 5 80 9 28 4 64 8 80 10 17 3 91 14 165 26 74 12 144 23 155 24 22 4 122
22 170 31 17 3 39 7 50 9 11 2 34 6 50 9 17 4 46 9 65 12 19 4 55 11 80 16 25
6 56 13 70 15 21 4 92 18 185 39 11 2 52 13 90 25 39 12 75 23 80 24 10 3 29
10 124 48 29 12 83 41 120 65 124 83 179 165 188 279 5 57 3 63 -26 97 -18 20
-51 45 -74 56 -120 58 -257 31 -567 -112 -119 -55 -148 -63 -162 -49 -7 7 -13
16 -14 20 0 4 -13 33 -27 64 -48 103 -45 63 -50 918 -2 327 -7 606 -10 620 -4
14 -9 39 -12 57 -9 72 -62 230 -93 283 -121 202 -302 338 -552 416 -138 43
-571 148 -650 158 -19 3 -52 7 -72 10 -65 10 -106 16 -155 21 -27 3 -64 8 -83
11 -39 6 -576 14 -582 9z"/>
<path d="M3405 1264 c-138 -27 -250 -90 -368 -208 l-83 -84 -65 62 c-182 174
-341 238 -566 230 -198 -8 -386 -87 -612 -258 -365 -275 -656 -374 -857 -290
-49 21 -153 124 -155 154 -3 62 2 83 30 111 25 24 37 29 80 29 29 0 83 -11
123 -25 39 -14 79 -25 88 -25 21 0 60 44 60 68 0 42 -96 137 -180 179 -47 24
-67 28 -140 28 -94 0 -149 -19 -225 -79 -75 -59 -150 -146 -177 -206 -27 -60
-14 -239 23 -312 5 -10 9 -22 9 -27 0 -21 71 -129 117 -176 175 -183 433 -306
733 -350 88 -14 395 -21 603 -15 9 0 23 -1 30 -1 11 -2 46 2 162 17 190 24
475 129 620 227 61 42 235 209 271 261 l20 29 36 -39 c20 -21 45 -49 55 -61
41 -49 52 -60 94 -99 107 -98 285 -196 450 -249 96 -30 287 -72 318 -70 12 1
21 -1 21 -4 0 -22 571 -19 715 4 17 3 46 7 65 10 99 14 278 61 299 78 8 7 16
10 18 9 6 -5 157 70 161 80 2 4 8 8 14 8 16 0 146 107 198 163 145 155 211
386 151 522 -31 69 -183 218 -263 255 -53 25 -69 28 -141 25 -110 -4 -174 -33
-259 -116 -46 -44 -53 -62 -48 -114 4 -44 45 -50 137 -20 43 15 125 29 156 27
22 -1 67 -29 66 -40 -1 -4 0 -9 1 -12 5 -13 10 -48 12 -72 2 -52 -79 -139
-164 -176 -25 -10 -113 -26 -148 -26 -72 0 -204 33 -287 70 -28 13 -54 24 -58
24 -6 0 -208 121 -215 129 -3 3 -25 19 -50 36 -25 16 -79 55 -121 86 -118 89
-318 192 -424 218 -107 26 -243 33 -330 15z"/>
</g>
</svg>
